<svg width="16" height="16" xmlns="http://www.w3.org/2000/svg" xmlns:svg="http://www.w3.org/2000/svg">
 <g>
  <circle stroke="#000000" id="svg_2" r="7.5" cy="8" cx="8" fill="#00bf5f"/>
  <g stroke="null" id="Livello_108">
   <path stroke="null" id="svg_1" d="m6.68312,8.93489l-2.34393,0l0,0.79746l0.20152,0l0,4.00969l1.95601,0l0,-4.01002l0.1864,0l0,-0.79713l0,0l0,0zm0.45278,-2.97828c0,-0.00388 -0.00059,-0.00695 -0.00059,-0.01084l0.00059,0l0,-3.44522c0,-0.12171 -0.14521,-0.22045 -0.32423,-0.22045c-0.1789,0 -0.32423,0.09866 -0.32423,0.22045l0,1.81488l0,0.7863l0,0.08766c-0.02975,0.10052 -0.16081,0.1767 -0.31804,0.1767c-0.17902,0 -0.32424,-0.09866 -0.32424,-0.22021l0,-1.19744l0,-1.4479c-0.00035,-0.12179 -0.14712,-0.22053 -0.32804,-0.22053s-0.32757,0.09866 -0.32757,0.22045l0,1.44596l0,1.19898c0,0.12155 -0.14521,0.22029 -0.32435,0.22029c-0.17878,0 -0.32411,-0.0985 -0.32411,-0.22029l0,-2.64356l-0.00131,0c0.00024,-0.00307 0.00107,-0.00574 0.00107,-0.00882c0,-0.11775 -0.14558,-0.21301 -0.32483,-0.21301c-0.17914,0 -0.32447,0.09526 -0.32447,0.21285c0,0.00307 0.00047,0.00574 0.00072,0.00882l-0.00072,0l0,3.44385l0.00047,0c0,0.00404 -0.00047,0.0072 -0.00047,0.01108c0,0.86183 0.42148,1.59864 1.01734,1.90206l0,1.03926l1.20458,0l0,-1.03691c0.59884,-0.30165 1.02246,-1.03999 1.02246,-1.90441m4.54191,4.47898l0,-4.61824l0,-3.53725c-1.12482,0.22425 -1.94637,0.93122 -1.94637,1.76895c0,0.0017 0.00024,0.00356 0.00036,0.00518l-0.00036,0l0,6.38145l-0.26924,0l0,0.88181l0.26924,0l0,2.4244l1.94637,0l0,-2.42472l0.25294,0l0,-0.88156l-0.25294,0l0,0z"/>
  </g>
  <g stroke="null" id="Livello_1_1_"/>
 </g>
</svg>