<svg width="16" height="16" xmlns="http://www.w3.org/2000/svg" xmlns:svg="http://www.w3.org/2000/svg">
<path stroke="null" d="m7.94737,5.05742c-1.58947,0 -2.88995,1.30048 -2.88995,2.88995c0,1.58947 1.30048,2.88995 2.88995,2.88995c1.58947,0 2.88995,-1.30048 2.88995,-2.88995c0,-1.58947 -1.30048,-2.88995 -2.88995,-2.88995l0,0zm6.43014,2.16746c-0.36124,-3.03445 -2.74545,-5.41866 -5.70766,-5.70766l0,-1.51722l-1.44498,0l0,1.51722c-3.03445,0.289 -5.41866,2.67321 -5.70766,5.70766l-1.51722,0l0,1.44498l1.51722,0c0.36124,3.03445 2.74545,5.41866 5.70766,5.70766l0,1.51722l1.44498,0l0,-1.51722c3.03445,-0.36124 5.41866,-2.74545 5.70766,-5.70766l1.51722,0l0,-1.44498l-1.51722,0l0,0zm-6.43014,5.7799c-2.8177,0 -5.05742,-2.23971 -5.05742,-5.05742c0,-2.8177 2.23971,-5.05742 5.05742,-5.05742c2.8177,0 5.05742,2.23971 5.05742,5.05742c0,2.8177 -2.23971,5.05742 -5.05742,5.05742l0,0z" id="Shape" fill="#d00"/>
</svg>